<?xml version="1.0" encoding="UTF-8"?><svg id="a" xmlns="http://www.w3.org/2000/svg" viewBox="0 0 800 600.7"><path d="M437.05,337.62c8.3-6.12,16.62-12,24.67-18.23,17.51-13.56,30.49-30.97,41.62-49.88,3.5-5.95,7.01-11.89,10.44-17.88,3.51-6.14,3.22-10.14-1.65-15.53-3.5-3.88-7.45-7.35-11.22-10.98-.83-.8-1.75-1.52-2.81-2.44,3.78-3.98,7.42-7.71,10.93-11.56,.82-.89,1.71-2.21,1.68-3.3-.25-9.28-.72-18.56-3.88-27.45-4.11-11.58-11.59-20.08-22.91-25.07-.64-.28-1.24-.65-1.86-.97,.23-3.56,2.14-5.58,5.03-7.29,15.18-8.96,31.57-2.88,39.96,9.91,4.99,7.61,7.56,16.11,9.3,24.91,4.58,23.16,14.12,44.59,23.1,66.22,2.27,5.46,4.51,10.94,6.84,16.59-25.57,5.6-43,23.66-62.1,38.96-12.93,10.36-25.64,20.93-40.87,27.89-7.76,3.55-15.81,5.86-24.38,6.2-.65,.03-1.3-.08-1.89-.12Z"/><path d="M338.21,304.72c3.38,.19,5.73,.34,8.08,.44,24.86,1.14,49.24-.87,72.35-11.15,15.18-6.75,26.98-17.21,35.16-31.72,.68-1.21,1.66-2.34,2.73-3.23,10.59-8.84,21.23-17.62,31.86-26.41,.27-.22,.62-.35,1.5-.84,4.16,3.77,8.54,7.6,12.7,11.65,.59,.58,.57,2.46,.11,3.36-18.08,35.09-42.62,64.16-77.84,83.24-1.02,.55-2.17,1.19-3.28,1.21-19.4,.39-38.58-.98-56.83-8.29-9.81-3.93-18.4-9.83-26.54-18.26Z"/><path d="M555.54,424.1c-5.71-2.88-11.45-5.69-17.11-8.65-14.32-7.5-29.39-10.16-45.56-8.72-44.05,3.91-70.42-26.61-76.59-60.45,2.18,.27,4.26,.36,6.27,.79,8.48,1.83,16.92,3.81,25.41,5.62,2.39,.51,3.12,1.61,3.21,4.11,.34,9.36,1.95,18.48,6.98,26.61,1.6,2.59,3.66,4.89,5.85,7.15-4.75-10.71-6.14-21.86-5.71-34.22,4.22,1.79,8.12,3.3,11.86,5.16,.68,.34,.84,2.07,.94,3.18,.82,8.92,3.09,17.34,8.74,24.5,1.48,1.88,3.43,3.4,5.49,4.84-4.88-8.72-6.41-18.04-6.54-28.38,18.79,9.39,35.18,21.34,51.15,34.05-1.4-4.86-17.43-22.36-29.84-31.27-11.74-8.43-24.11-15.99-35.62-23.55,6.63-3.8,14.1-8.18,21.71-12.31,.82-.44,2.69,.23,3.62,.95,17.49,13.59,31.86,29.75,40.14,50.58,5.97,15.01,13.37,28.96,26.24,39.4-.21,.2-.41,.4-.62,.61Z"/><path d="M342.44,325.52c-10.48-.47-21.1-2.92-31.5-6.44-34.27-11.62-59.21-34.05-76.16-65.76-1.2-2.25-1.37-4.18-.58-6.7,4.78-15.2,8.76-30.59,11.02-46.43,1.73-12.15,7.28-22.18,19.16-27.36,3.27-1.43,6.91-2.01,10.07-2.89,1.5,8.93,2.02,17.37,4.5,25.19,2.24,7.06,1.89,12.47-1.89,19.03-7.92,13.74-7.82,29.16-6.57,44.51,.38,4.74,.92,9.48,1.68,14.17,.24,1.47,1.13,3.13,2.25,4.13,13.24,11.94,28.05,21.22,45.24,26.44,.87,.27,1.8,.73,2.43,1.37,6.83,6.9,13.61,13.84,20.37,20.74Z"/><path d="M467.49,161.34c-5.77-7.47-10.6-14.23-15.95-20.55-9.11-10.75-19.74-19.33-34.26-21.57-9.16-1.42-17.99-.32-26.53,3.41-1.19,.52-3.22,.64-4.14-.03-6.48-4.8-12.78-9.85-19.11-14.85-.64-.51-1.15-1.21-1.66-1.86-4.7-5.95-4.12-8.97,2.84-11.88,29.91-12.5,64.17-11.27,91.06,14.87,1.37,1.33,2.69,2.73,4.18,3.9,9.74,7.63,10.96,17.92,8.78,29.02-1.27,6.43-3.35,12.7-5.2,19.55Z"/><path d="M310.92,332.48c-18.29,6.42-34.56,15.71-47.71,30.06,17.63-9.99,35.98-18.14,56.22-22.63-1.83,10.92-7.81,18.63-17.3,25.09,5.2-.53,8.6-2.58,11.74-5.11,6.01-4.85,9.99-11.15,12.41-18.39,.76-2.28,1.79-3.24,4.2-3.35,4.26-.2,8.5-.74,13.24-1.19,.34,10.23-1.35,19.42-8,27.39,4.33-1.49,7.83-4.24,10.03-9.42,2.02-4.76,3.14-9.9,4.51-14.92,.43-1.58,.46-2.99,2.77-2.71,9.92,1.2,19.85,2.29,29.78,3.44,.31,.04,.59,.33,1.44,.83-2.04,2.45-3.77,4.98-5.94,7.05-18.68,17.89-40.62,26.98-66.8,24.25-6.27-.66-12.52-1.46-18.77-2.32-16.58-2.26-31.8,2.41-46.66,9-2.69,1.2-5.36,2.46-8.36,3.27,1.09-.93,2.15-1.89,3.27-2.77,10.21-8.02,17.33-18.54,24.09-29.39,6.03-9.69,13.65-18.01,22.54-25.15,.97-.78,2.74-1.55,3.69-1.18,6.5,2.51,12.88,5.32,19.61,8.17Z"/><path d="M290.11,216.72c2.73,5.05,5.79,9.94,8.1,15.17,4.34,9.81,11.37,17.2,19.75,23.53,12.36,9.34,25.93,16.36,40.65,21.17,1.13,.37,2.24,.78,3.36,1.19,.07,.03,.1,.17,.35,.61-6.86,5.75-13.66,11.75-22.44,14.55-6.14,1.96-12.33,.53-18.24-1.4-13.51-4.42-25.5-11.64-36.42-20.66-.86-.71-1.83-1.8-1.95-2.81-1.58-13.14-3.14-26.32,.53-39.36,1.14-4.06,3.05-7.9,4.61-11.85,.57-.05,1.14-.1,1.71-.15Z"/><path d="M391.78,418.09c-.89-6.75-1.87-13.17-2.57-19.62-1.81-16.69-3.98-33.38-1.08-50.18,.02-.12,.02-.24,.04-.36,.88-6.65,.95-6.71,7.87-4.99-.25,2.38-.5,4.82-.77,7.26-2.15,19.4,.83,38.47,3.8,57.53,2.38,15.27,4.73,30.55,7.1,45.83,.13,.81,.32,1.61,.59,2.9,8.33-11.52,20.44-16.68,33.02-21.46-.75,.74-1.53,1.45-2.24,2.22-.8,.88-1.84,1.69-2.24,2.74-1.55,4.08-3.18,8.17-4.23,12.4-1.65,6.6-3.86,12.86-9.23,17.31-2.59,2.15-5.74,3.62-8.95,5.06,.97-9.54,4.72-17.63,10.62-24.81-10.31,6.47-17.23,14.88-17.5,27.77-.24,11.58-2.21,22.95-5.81,33.99-2.48,7.61-6.54,14.2-12.62,19.26,2.42-8.49,5.41-16.89,7.17-25.54,4.67-22.99,4.95-46.1-.12-69.11-2.09-9.48-8.04-16.13-16.17-21.13,5.06,7.27,9.91,14.6,11.21,24.25-6.25-1.36-11.17-4.13-14.44-8.96-2.35-3.48-4.36-7.44-5.47-11.48-2.06-7.54-3.85-15.03-11.45-20.38,11.98,2.66,24.08,9.79,33.47,19.47Z"/><path d="M411.89,229c-5.3,5.76-10.46,11.66-15.95,17.24-6.6,6.71-13.4,13.24-20.33,19.6-1.23,1.13-3.72,1.86-5.31,1.47-19.03-4.68-36.19-13.18-50.93-26.2-10.05-8.89-15.03-19.68-11.6-33.86,.78,.67,1.35,1,1.72,1.49,9.88,12.88,23.08,20.34,39,22.12,19.1,2.13,38.28,2.1,57.33-1.26,1.85-.33,3.66-.88,5.49-1.33l.58,.74Z"/><path d="M399.59,131.58c11.82-2.75,21.9-.97,30.71,5.61,12.72,9.5,22.34,21.83,29.21,36.03,7.24,14.97,3.64,28.81-6.63,41.14-8.55,10.27-19.83,16.95-31.53,22.99-.16,.08-.43-.06-.3-.04,4.13-7.45,8.71-14.79,12.4-22.56,7.74-16.3,9.36-33.02,2.09-50.07-3.91-9.17-9.96-16.44-18.3-21.82-5.58-3.6-11.19-7.16-17.65-11.29Z"/><path d="M364.53,292.4c12.07-11.13,24.09-22.31,36.25-33.35,1.43-1.3,3.49-2.01,5.38-2.68,15.54-5.56,30.32-12.54,43.5-22.63,.26-.2,.62-.25,1.48-.59-.18,1.52-.24,2.75-.48,3.94-4.73,23.31-18.87,38.67-40.46,47.62-13.46,5.58-27.63,7.84-42.09,8.59-1.03,.05-2.07,0-3.11,0l-.46-.91Z"/><path d="M295.59,205.28c-4.84-8.44-7.1-17-7.93-25.94-1.66-17.9,1.72-34.47,14.07-48.22,10.22-11.38,22.52-18.99,38.4-19.23,1.27-.02,2.53,.18,4.5,.34-3.31,3.66-6.14,6.81-8.99,9.94-4.49,4.94-8.78,10.07-13.52,14.76-12.7,12.55-19.33,28.07-22.65,45.24-1.44,7.45-2.52,14.97-3.88,23.12Z"/><path d="M389.23,139.37c-4.06,1.79-8.19,3.15-13.43,2.6-20.46-2.13-38.27,14-39.11,34.66-.06,1.39,0,2.79,0,4.8-5.08-1.94-9.63-3.59-14.07-5.49-.65-.28-1.13-1.72-1.14-2.63-.02-5.35,.06-10.71,.27-16.06,.04-1.1,.48-2.42,1.2-3.22,11.54-12.79,23.16-25.52,34.43-37.88,10.92,7.96,21.42,15.61,31.86,23.22Z"/><path d="M476.36,165.72c7.69,1.99,12.5,6,15.92,11.72,4.7,7.89,6.29,16.59,6.25,25.65,0,.96-.44,2.2-1.11,2.85-11.44,11.08-22.94,22.08-34.44,33.1-.15,.15-.41,.18-1.59,.68,2.68-8.23-.3-16.54,4.99-24.14,7.93-11.4,10.09-24.24,7.33-38.1-.69-3.48,1.63-7.57,2.66-11.76Z"/><path d="M373.66,212.45c-2.23,2.48-4.07,4.64-6.06,6.66-.61,.61-1.63,1.16-2.46,1.16-15.86-.07-30.9-2.7-42.7-14.59-4.93-4.97-8.74-10.68-10.38-17.63-.14-.57-.25-1.16-.31-1.74-.02-.2,.14-.43,.37-1.08,21.24,7.01,41.53,16.11,61.54,27.22Z"/><path d="M382.41,220.37c13.27-15.4,27.93-27.15,45.82-35.6,.29,7.65-.36,14.64-3.61,20.96-1.38,2.69-3.97,5.17-6.6,6.72-10.65,6.29-22.6,7.16-35.61,7.92Z"/><path d="M415.09,178.19c-8.99-20.37-13.44-23.04-33.8-20.4,8.11-9.39,22.93-10.65,33.17-2.77,5.15,3.97,8.6,9.17,10.32,15.42,.25,.93-.2,2.69-.91,3.13-2.8,1.74-5.83,3.11-8.78,4.62Z"/><path d="M371.35,153.39c-8.33,11.09-12.02,23.45-13.03,37.51-3.27-1.58-6.01-2.81-8.65-4.25-.59-.32-1.01-1.32-1.12-2.07-1.86-12.49,3.97-28.46,20.82-31.19,.45-.07,.92,0,1.97,0Z"/><path d="M381.77,203.26c-3.81-2.13-7.6-4.25-12.03-6.73,12.79-4.61,23.68-10.9,32.8-20.25,2.38,6.82,2.02,7.87-3.31,11.99-3.01,2.33-5.96,4.75-8.85,7.23-2.88,2.47-5.65,5.07-8.61,7.76Z"/><path d="M393.45,168.69c-6.66,6.88-14.24,11.49-22.83,14.89,1.22-9.12,14.31-17.36,22.83-14.89Z"/></svg>